<svg width="80" height="80" viewBox="0 0 80 80" fill="none" xmlns="http://www.w3.org/2000/svg">
<path d="M7.56409 64.2309C6.41464 64.2309 5.42214 63.8131 4.58659 62.9775C3.75103 62.142 3.33325 61.1495 3.33325 60H15.3849C13.8505 60 12.5694 59.4862 11.5416 58.4584C10.5138 57.4306 9.99992 56.1495 9.99992 54.615V18.7184C9.99992 17.1839 10.5138 15.9028 11.5416 14.875C12.5694 13.8473 13.8505 13.3334 15.3849 13.3334H64.6149C66.1494 13.3334 67.4305 13.8473 68.4583 14.875C69.486 15.9028 69.9999 17.1839 69.9999 18.7184V54.615C69.9999 56.1495 69.486 57.4306 68.4583 58.4584C67.4305 59.4862 66.1494 60 64.6149 60H76.6666C76.6666 61.1495 76.2488 62.142 75.4133 62.9775C74.5777 63.8131 73.5852 64.2309 72.4358 64.2309H7.56409ZM41.4458 61.9584C41.8496 61.5545 42.0516 61.0725 42.0516 60.5125C42.0516 59.9531 41.8496 59.4714 41.4458 59.0675C41.0419 58.6637 40.5599 58.4617 39.9999 58.4617C39.4399 58.4617 38.958 58.6637 38.5541 59.0675C38.1502 59.4714 37.9483 59.9531 37.9483 60.5125C37.9483 61.0725 38.1502 61.5545 38.5541 61.9584C38.958 62.3623 39.4399 62.5642 39.9999 62.5642C40.5599 62.5642 41.0419 62.3623 41.4458 61.9584ZM15.3849 56.6667H64.6149C65.1283 56.6667 65.5985 56.4531 66.0258 56.0259C66.453 55.5987 66.6666 55.1284 66.6666 54.615V18.7184C66.6666 18.205 66.453 17.7348 66.0258 17.3075C65.5985 16.8803 65.1283 16.6667 64.6149 16.6667H15.3849C14.8716 16.6667 14.4013 16.8803 13.9741 17.3075C13.5469 17.7348 13.3333 18.205 13.3333 18.7184V54.615C13.3333 55.1284 13.5469 55.5987 13.9741 56.0259C14.4013 56.4531 14.8716 56.6667 15.3849 56.6667Z" fill="#21514C"/>
</svg>
